<svg width="360" height="800" viewBox="0 0 360 800" fill="none" xmlns="http://www.w3.org/2000/svg">
<g clip-path="url(#clip0_95_175)">
<rect width="420" height="933.333" fill="white"/>
<g filter="url(#filter0_f_95_175)">
<path fill-rule="evenodd" clip-rule="evenodd" d="M260.22 485.625C302.721 491.509 335.607 517.23 367.587 544.479C402.36 574.109 446.486 602.203 449.05 646.523C451.68 691.998 409.231 724.294 380.077 760.438C343.344 805.979 319.594 870.216 260.22 880.628C195.991 891.892 119.973 865.076 86.1232 811.989C54.5404 762.457 105.203 704.183 110.948 646.523C115.655 599.285 83.2261 545.275 116.244 509.685C149.747 473.574 210.093 478.686 260.22 485.625Z" fill="#9D4EDD"/>
</g>
<g filter="url(#filter1_f_95_175)">
<path fill-rule="evenodd" clip-rule="evenodd" d="M345.387 -88.375C387.888 -82.4915 420.774 -56.7696 452.754 -29.5207C487.527 0.108917 531.653 28.2034 534.217 72.5232C536.847 117.998 494.398 150.294 465.244 186.438C428.511 231.979 404.761 296.216 345.387 306.628C281.158 317.892 205.14 291.076 171.29 237.989C139.707 188.457 190.37 130.183 196.115 72.5232C200.822 25.2851 168.393 -28.7246 201.411 -64.3146C234.914 -100.426 295.26 -95.3142 345.387 -88.375Z" fill="#9D4EDD" fill-opacity="0.57"/>
</g>
<g filter="url(#filter2_f_95_175)">
<path fill-rule="evenodd" clip-rule="evenodd" d="M138.469 354.202C171.816 358.701 198.439 377.177 225.648 396.974C261.046 422.729 313.02 440.566 317.074 484.154C321.19 528.402 275.37 558.213 243.532 589.217C212.346 619.585 181.943 655.877 138.469 658.076C93.5568 660.348 52.2332 633.891 22.2109 600.411C-6.20982 568.718 -17.8401 526.723 -17.4924 484.154C-17.148 441.983 -8.30421 396.775 24.0946 369.78C54.8243 344.175 98.8288 348.853 138.469 354.202Z" fill="#EE9B00"/>
</g>
<g filter="url(#filter3_f_95_175)">
<path fill-rule="evenodd" clip-rule="evenodd" d="M369.773 223.214C403.934 227.37 431.206 244.434 459.079 262.719C495.34 286.506 548.581 302.981 552.735 343.238C556.951 384.107 510.013 411.64 477.398 440.275C445.452 468.323 414.307 501.843 369.773 503.874C323.766 505.972 281.434 481.537 250.679 450.615C221.566 421.342 209.652 382.555 210.008 343.238C210.361 304.29 219.42 262.535 252.609 237.602C284.088 213.953 329.166 218.274 369.773 223.214Z" fill="#FFBA08"/>
</g>
<g filter="url(#filter4_f_95_175)">
<path fill-rule="evenodd" clip-rule="evenodd" d="M11.5212 -23.8898C37.4324 -20.7377 58.1182 -7.79452 79.2601 6.07478C106.764 24.1177 147.148 36.6136 150.298 67.1491C153.497 98.1478 117.894 119.032 93.1555 140.752C68.9238 162.027 45.3006 187.451 11.5212 188.992C-23.3755 190.584 -55.484 172.049 -78.8115 148.594C-100.894 126.391 -109.931 96.9712 -109.661 67.1491C-109.393 37.6064 -102.522 5.93561 -77.3478 -12.9765C-53.4708 -30.9143 -19.2791 -27.6366 11.5212 -23.8898Z" fill="#FFBA08"/>
</g>
<g filter="url(#filter5_f_95_175)">
<path fill-rule="evenodd" clip-rule="evenodd" d="M158.562 69.2447C204.586 68.3233 262.528 46.3507 290.716 82.7434C319.057 119.333 271.963 168.619 271.378 214.897C270.809 259.889 310.065 304.872 287.416 343.751C262.258 386.936 208.514 406.905 158.562 408.551C107.098 410.247 56.6362 389.631 20.9283 352.531C-14.1586 316.076 -29.863 265.453 -27.8247 214.897C-25.8678 166.36 -6.67951 117.842 31.5962 87.931C66.6366 60.5486 114.101 70.1349 158.562 69.2447Z" fill="#C8B6FF"/>
</g>
<g filter="url(#filter6_f_95_175)">
<path fill-rule="evenodd" clip-rule="evenodd" d="M0.48259 670.974C59.3141 669.796 133.382 641.709 169.415 688.229C205.643 735.002 145.442 798.004 144.694 857.162C143.967 914.674 194.149 972.176 165.196 1021.88C133.037 1077.08 64.336 1102.61 0.48259 1104.71C-65.3045 1106.88 -129.81 1080.52 -175.455 1033.1C-220.307 986.499 -240.381 921.787 -237.776 857.162C-235.274 795.117 -210.746 733.096 -161.818 694.861C-117.026 659.858 -56.3527 672.112 0.48259 670.974Z" fill="#FFB6B6"/>
</g>
</g>
<defs>
<filter id="filter0_f_95_175" x="-134.05" y="270.783" width="793.1" height="822.267" filterUnits="userSpaceOnUse" color-interpolation-filters="sRGB">
<feFlood flood-opacity="0" result="BackgroundImageFix"/>
<feBlend mode="normal" in="SourceGraphic" in2="BackgroundImageFix" result="shape"/>
<feGaussianBlur stdDeviation="104.942" result="effect1_foregroundBlur_95_175"/>
</filter>
<filter id="filter1_f_95_175" x="-48.8833" y="-303.217" width="793.1" height="822.267" filterUnits="userSpaceOnUse" color-interpolation-filters="sRGB">
<feFlood flood-opacity="0" result="BackgroundImageFix"/>
<feBlend mode="normal" in="SourceGraphic" in2="BackgroundImageFix" result="shape"/>
<feGaussianBlur stdDeviation="104.942" result="effect1_foregroundBlur_95_175"/>
</filter>
<filter id="filter2_f_95_175" x="-227.383" y="140.117" width="754.6" height="727.979" filterUnits="userSpaceOnUse" color-interpolation-filters="sRGB">
<feFlood flood-opacity="0" result="BackgroundImageFix"/>
<feBlend mode="normal" in="SourceGraphic" in2="BackgroundImageFix" result="shape"/>
<feGaussianBlur stdDeviation="104.942" result="effect1_foregroundBlur_95_175"/>
</filter>
<filter id="filter3_f_95_175" x="0.116684" y="9.44994" width="762.767" height="704.433" filterUnits="userSpaceOnUse" color-interpolation-filters="sRGB">
<feFlood flood-opacity="0" result="BackgroundImageFix"/>
<feBlend mode="normal" in="SourceGraphic" in2="BackgroundImageFix" result="shape"/>
<feGaussianBlur stdDeviation="104.942" result="effect1_foregroundBlur_95_175"/>
</filter>
<filter id="filter4_f_95_175" x="-268.864" y="-186.03" width="578.561" height="534.315" filterUnits="userSpaceOnUse" color-interpolation-filters="sRGB">
<feFlood flood-opacity="0" result="BackgroundImageFix"/>
<feBlend mode="normal" in="SourceGraphic" in2="BackgroundImageFix" result="shape"/>
<feGaussianBlur stdDeviation="79.5986" result="effect1_foregroundBlur_95_175"/>
</filter>
<filter id="filter5_f_95_175" x="-237.883" y="-148.05" width="747.55" height="766.581" filterUnits="userSpaceOnUse" color-interpolation-filters="sRGB">
<feFlood flood-opacity="0" result="BackgroundImageFix"/>
<feBlend mode="normal" in="SourceGraphic" in2="BackgroundImageFix" result="shape"/>
<feGaussianBlur stdDeviation="104.942" result="effect1_foregroundBlur_95_175"/>
</filter>
<filter id="filter6_f_95_175" x="-353.729" y="545.771" width="650.463" height="674.791" filterUnits="userSpaceOnUse" color-interpolation-filters="sRGB">
<feFlood flood-opacity="0" result="BackgroundImageFix"/>
<feBlend mode="normal" in="SourceGraphic" in2="BackgroundImageFix" result="shape"/>
<feGaussianBlur stdDeviation="57.8644" result="effect1_foregroundBlur_95_175"/>
</filter>
<clipPath id="clip0_95_175">
<rect width="420" height="933.333" fill="white"/>
</clipPath>
</defs>
</svg>
