<svg width="247" height="49" viewBox="0 0 247 49" fill="none" xmlns="http://www.w3.org/2000/svg">
<path d="M30 8.5C38.8366 8.5 46 15.6634 46 24.5H30V8.5Z" fill="black"/>
<path d="M46 40.5C37.1634 40.5 30 33.3366 30 24.5H46V40.5Z" fill="black"/>
<path d="M14 40.5C22.8366 40.5 30 33.3366 30 24.5H14V40.5Z" fill="black"/>
<path d="M14 24.5C22.8366 24.5 30 17.3366 30 8.5H14V24.5Z" fill="black"/>
<path d="M61.8095 13.8826V9.38545H85.4375V13.8826H76.2842V39H70.9628V13.8826H61.8095ZM96.2285 39.4338C94.0594 39.4338 92.1796 38.9566 90.589 38.0022C88.9983 37.0479 87.7644 35.7127 86.8872 33.9968C86.0195 32.2808 85.5857 30.2757 85.5857 27.9813C85.5857 25.6869 86.0195 23.677 86.8872 21.9514C87.7644 20.2258 88.9983 18.8858 90.589 17.9314C92.1796 16.9771 94.0594 16.4999 96.2285 16.4999C98.3975 16.4999 100.277 16.9771 101.868 17.9314C103.459 18.8858 104.688 20.2258 105.555 21.9514C106.433 23.677 106.871 25.6869 106.871 27.9813C106.871 30.2757 106.433 32.2808 105.555 33.9968C104.688 35.7127 103.459 37.0479 101.868 38.0022C100.277 38.9566 98.3975 39.4338 96.2285 39.4338ZM96.2574 35.2403C97.4335 35.2403 98.4168 34.9174 99.2073 34.2715C99.9978 33.616 100.586 32.7387 100.971 31.6397C101.367 30.5408 101.564 29.3165 101.564 27.9668C101.564 26.6076 101.367 25.3785 100.971 24.2795C100.586 23.1709 99.9978 22.2888 99.2073 21.6333C98.4168 20.9777 97.4335 20.65 96.2574 20.65C95.0524 20.65 94.0498 20.9777 93.2497 21.6333C92.4592 22.2888 91.8663 23.1709 91.471 24.2795C91.0854 25.3785 90.8926 26.6076 90.8926 27.9668C90.8926 29.3165 91.0854 30.5408 91.471 31.6397C91.8663 32.7387 92.4592 33.616 93.2497 34.2715C94.0498 34.9174 95.0524 35.2403 96.2574 35.2403ZM119.556 39.3904C117.812 39.3904 116.25 38.9422 114.871 38.0456C113.493 37.1491 112.403 35.8477 111.603 34.1414C110.803 32.4351 110.403 30.3624 110.403 27.9235C110.403 25.4556 110.808 23.3733 111.618 21.6766C112.437 19.9703 113.541 18.6834 114.929 17.8158C116.317 16.9385 117.865 16.4999 119.571 16.4999C120.872 16.4999 121.942 16.7216 122.781 17.1651C123.62 17.5989 124.285 18.1243 124.777 18.7412C125.268 19.3485 125.649 19.9221 125.919 20.462H126.136V9.38545H131.385V39H126.237V35.5006H125.919C125.649 36.0405 125.259 36.6141 124.748 37.2214C124.237 37.8191 123.562 38.33 122.723 38.7542C121.885 39.1783 120.829 39.3904 119.556 39.3904ZM121.017 35.0957C122.126 35.0957 123.07 34.7969 123.851 34.1992C124.632 33.5919 125.225 32.7484 125.63 31.6687C126.035 30.589 126.237 29.3309 126.237 27.8945C126.237 26.4582 126.035 25.2098 125.63 24.1493C125.234 23.0889 124.646 22.2647 123.866 21.6766C123.094 21.0886 122.145 20.7946 121.017 20.7946C119.85 20.7946 118.877 21.0982 118.096 21.7056C117.315 22.3129 116.727 23.1516 116.332 24.2216C115.937 25.2917 115.739 26.516 115.739 27.8945C115.739 29.2827 115.937 30.5215 116.332 31.6108C116.737 32.6905 117.33 33.5437 118.11 34.1703C118.901 34.7873 119.87 35.0957 121.017 35.0957ZM146.651 39.4338C144.482 39.4338 142.602 38.9566 141.012 38.0022C139.421 37.0479 138.187 35.7127 137.31 33.9968C136.442 32.2808 136.009 30.2757 136.009 27.9813C136.009 25.6869 136.442 23.677 137.31 21.9514C138.187 20.2258 139.421 18.8858 141.012 17.9314C142.602 16.9771 144.482 16.4999 146.651 16.4999C148.82 16.4999 150.7 16.9771 152.291 17.9314C153.881 18.8858 155.111 20.2258 155.978 21.9514C156.855 23.677 157.294 25.6869 157.294 27.9813C157.294 30.2757 156.855 32.2808 155.978 33.9968C155.111 35.7127 153.881 37.0479 152.291 38.0022C150.7 38.9566 148.82 39.4338 146.651 39.4338ZM146.68 35.2403C147.856 35.2403 148.84 34.9174 149.63 34.2715C150.421 33.616 151.009 32.7387 151.394 31.6397C151.789 30.5408 151.987 29.3165 151.987 27.9668C151.987 26.6076 151.789 25.3785 151.394 24.2795C151.009 23.1709 150.421 22.2888 149.63 21.6333C148.84 20.9777 147.856 20.65 146.68 20.65C145.475 20.65 144.473 20.9777 143.672 21.6333C142.882 22.2888 142.289 23.1709 141.894 24.2795C141.508 25.3785 141.315 26.6076 141.315 27.9668C141.315 29.3165 141.508 30.5408 141.894 31.6397C142.289 32.7387 142.882 33.616 143.672 34.2715C144.473 34.9174 145.475 35.2403 146.68 35.2403ZM161.968 39V9.38545H167.333V21.9225H181.056V9.38545H186.435V39H181.056V26.4196H167.333V39H161.968ZM192.038 39V16.7891H197.273V39H192.038ZM194.67 13.6368C193.841 13.6368 193.128 13.362 192.53 12.8125C191.932 12.2534 191.633 11.5834 191.633 10.8026C191.633 10.0121 191.932 9.34207 192.53 8.79258C193.128 8.23345 193.841 7.95389 194.67 7.95389C195.509 7.95389 196.222 8.23345 196.81 8.79258C197.408 9.34207 197.707 10.0121 197.707 10.8026C197.707 11.5834 197.408 12.2534 196.81 12.8125C196.222 13.362 195.509 13.6368 194.67 13.6368ZM222.495 16.7891L214.585 39H208.801L200.892 16.7891H206.473L211.578 33.2882H211.809L216.928 16.7891H222.495ZM235.195 39.4338C232.968 39.4338 231.045 38.9711 229.425 38.0456C227.815 37.1105 226.577 35.7898 225.709 34.0835C224.841 32.3676 224.408 30.348 224.408 28.0247C224.408 25.74 224.841 23.7348 225.709 22.0092C226.586 20.274 227.811 18.9244 229.382 17.9604C230.953 16.9867 232.799 16.4999 234.92 16.4999C236.289 16.4999 237.581 16.7216 238.795 17.1651C240.02 17.5989 241.099 18.2737 242.035 19.1895C242.979 20.1053 243.722 21.2718 244.261 22.6889C244.801 24.0963 245.071 25.7737 245.071 27.721V29.3261H226.866V25.7978H240.053C240.044 24.7952 239.827 23.9035 239.403 23.1227C238.979 22.3322 238.386 21.7104 237.624 21.2573C236.872 20.8042 235.995 20.5777 234.992 20.5777C233.922 20.5777 232.982 20.838 232.173 21.3585C231.363 21.8694 230.731 22.5443 230.278 23.383C229.835 24.212 229.608 25.123 229.599 26.1159V29.196C229.599 30.4877 229.835 31.5964 230.307 32.5218C230.78 33.4376 231.44 34.1414 232.288 34.633C233.137 35.115 234.13 35.356 235.267 35.356C236.029 35.356 236.718 35.25 237.335 35.0379C237.952 34.8162 238.487 34.4932 238.94 34.0691C239.393 33.6449 239.735 33.1195 239.967 32.4929L244.854 33.0424C244.546 34.3342 243.958 35.4621 243.09 36.4261C242.232 37.3805 241.133 38.1227 239.793 38.653C238.453 39.1735 236.92 39.4338 235.195 39.4338Z" fill="black"/>
</svg>
